<svg width="20" height="18" viewBox="0 0 20 18" fill="none" xmlns="http://www.w3.org/2000/svg">
<g style="mix-blend-mode:lighten">
<path d="M9.50105 15.5052C8.70588 15.5052 7.99793 15.1296 7.55885 14.4749L1.89558 6.07861C1.40864 5.35638 1.37092 4.43842 1.7967 3.68182C2.21314 2.93896 2.97541 2.49561 3.83643 2.49561H15.1666C16.0292 2.49561 16.7926 2.94043 17.2084 3.68549C17.6316 4.43988 17.5935 5.35791 17.1075 6.07855L11.442 14.4781C11.0051 15.1296 10.2968 15.5052 9.50105 15.5052Z" fill="#FFD987"/>
</g>
<path d="M9.50048 14.0052C9.79095 14.0052 10.0402 13.8746 10.1979 13.6394L15.8633 5.23981C16.0347 4.98578 16.0472 4.68237 15.8981 4.41656C15.7491 4.14966 15.4797 3.99561 15.1661 3.99561H3.83587C3.52227 3.99561 3.25299 4.14966 3.10388 4.41656C2.95385 4.68237 2.96728 4.98578 3.13855 5.23981L8.80407 13.6394C8.96179 13.8746 9.21087 14.0052 9.50048 14.0052ZM9.50048 17.0052C8.21704 17.0052 7.02624 16.3727 6.31433 15.3131L0.651424 6.91736C-0.155766 5.72003 -0.217045 4.19696 0.491268 2.94202C1.1676 1.74115 2.44799 0.995605 3.83587 0.995605H15.1661C16.5569 0.995605 17.8393 1.74384 18.5145 2.94885C19.2182 4.20331 19.1554 5.72394 18.3505 6.9173L12.6854 15.3164C11.9732 16.374 10.7831 17.0052 9.50048 17.0052Z" fill="#3D006F"/>
</svg>
