<svg width="21" height="15" viewBox="0 0 21 15" fill="none" xmlns="http://www.w3.org/2000/svg">
<path d="M7.76367 14.6484C7.91992 14.8828 8.1543 14.9609 8.4668 14.9609C8.74023 14.9609 8.97461 14.8828 9.16992 14.6484L20.6934 3.16406C20.8496 3.00781 20.9668 2.77344 20.9668 2.46094C20.9668 2.1875 20.8496 1.95312 20.6934 1.75781L19.248 0.351562C19.0527 0.15625 18.8184 0.0390625 18.5449 0.0390625C18.2715 0.0390625 18.0371 0.15625 17.8418 0.351562L8.4668 9.72656L4.0918 5.35156C3.85742 5.15625 3.62305 5.03906 3.34961 5.03906C3.07617 5.03906 2.8418 5.15625 2.68555 5.35156L1.24023 6.75781C1.04492 6.95312 0.966797 7.1875 0.966797 7.46094C0.966797 7.77344 1.04492 8.00781 1.24023 8.16406L7.76367 14.6484Z" fill="#35CEAA"/>
</svg>
